<svg width="13" height="15" viewBox="0 0 13 15" fill="none" xmlns="http://www.w3.org/2000/svg">
<path d="M12.6327 4.18064H10.7941C10.7074 1.85976 8.81423 0 6.49906 0C4.18389 0 2.29257 1.85976 2.20403 4.18064H0.367338C0.165773 4.18064 0 4.30069 0 4.44741L0.565135 14.7332C0.565135 14.88 0.729025 15 0.932473 15H12.0675C12.2691 15 12.4349 14.88 12.4349 14.7332L13 4.44741C13 4.30069 12.8342 4.18064 12.6327 4.18064ZM6.49906 0.741235C8.40922 0.741235 9.96899 2.26944 10.0575 4.18064H2.94247C3.02913 2.26944 4.5889 0.741235 6.49906 0.741235ZM11.7002 14.2759H1.29793L0.732792 4.96951H12.2653L11.7002 14.2759Z" fill="black"/>
</svg>
