<svg width="173" height="114" viewBox="0 0 173 114" fill="none" xmlns="http://www.w3.org/2000/svg">
<g clip-path="url(#clip0_413_710)">
<path d="M31.4989 77.6209C30.6633 77.4564 30.1062 76.6694 30.2455 75.8236C31.0927 71.1015 32.1605 66.4969 33.0193 62.8672C33.4487 61.023 33.8201 59.4372 34.0755 58.2273C32.5667 59.9541 30.5704 63.7952 28.9688 68.0474C27.8082 71.1133 26.9493 74.4023 26.7056 77.3389C26.4851 80.0171 26.7985 82.3547 27.901 83.7525C29.0268 85.1621 31.1855 85.7142 34.7718 84.798V84.7745C43.6853 82.4839 55.7324 68.8814 61.9648 55.2437C64.0771 50.6039 65.5047 45.9992 65.8645 41.8644C66.2127 37.9176 65.6091 34.4289 63.6941 31.8447C61.4542 28.8258 57.3688 26.9464 50.8694 26.8054C40.2847 26.594 30.0598 33.1838 23.7925 41.1244C21.3552 44.202 19.5215 47.491 18.5117 50.6273C17.5368 53.6579 17.3511 56.5358 18.1171 58.9439C18.976 61.6691 21.1231 63.8657 24.8835 65.1108C25.6959 65.3692 26.1369 66.2502 25.8816 67.0725C25.6146 67.883 24.7558 68.3176 23.9434 68.0592C19.1501 66.4617 16.353 63.5368 15.204 59.8954C14.2291 56.8178 14.4612 53.2938 15.6102 49.6759C16.7244 46.1754 18.7322 42.5692 21.4132 39.1862C28.168 30.623 39.2982 23.4929 50.9043 23.7278C58.4598 23.8805 63.3344 26.2298 66.1198 30.0122C68.5339 33.2542 69.3231 37.4712 68.9053 42.1581C68.4991 46.6688 66.9787 51.6375 64.7271 56.5711C58.1813 70.9018 45.2637 85.3031 35.5146 87.7933C30.5704 89.062 27.3904 88.0518 25.4986 85.6907C23.8505 83.5998 23.3515 80.5105 23.63 77.057C23.9085 73.8385 24.8486 70.244 26.1021 66.908C28.7831 59.7779 33.2166 53.7402 36.0137 54.1865C37.3019 54.4097 37.6153 55.5491 37.3252 57.4286C37.093 58.8264 36.594 60.9643 35.9905 63.5603C35.1432 67.1782 34.0755 71.7358 33.263 76.3405C33.1238 77.2215 32.3345 77.7736 31.4989 77.6209Z" fill="white"/>
<path d="M69.6014 55.7134C70.2746 54.9498 70.8897 54.7384 71.4584 55.1143C73.06 56.148 70.4138 58.3681 70.0076 60.9171C69.172 66.1795 76.4606 59.5545 77.0757 58.3681C77.7489 58.0157 78.2595 58.0744 78.6077 58.556C78.9443 59.0259 78.9675 59.5075 78.7122 60.0126C77.0525 63.0902 67.8141 71.0426 67.0945 62.2209C66.9784 60.9171 68.6845 56.7353 69.6014 55.7134ZM72.2012 48.3131C72.4565 48.1486 72.7234 48.0781 73.0136 48.1134C73.4314 48.1956 73.7796 48.3483 74.1278 48.5362C74.5224 48.7359 74.6849 49.0766 74.6036 49.5934C74.0465 52.6828 71.4003 54.1746 70.7852 52.0602C70.704 51.7783 70.704 51.5081 70.82 51.2379C70.9245 50.9443 71.0638 50.5331 71.2727 49.9928C71.4816 49.429 71.6209 49.1001 71.6673 48.9709C71.7601 48.7007 71.9574 48.4775 72.2012 48.3131Z" fill="white"/>
<path d="M89.7614 55.8662C89.9239 56.0541 90.0399 56.3243 90.1096 56.6884C90.2256 57.3815 90.156 57.9571 89.9007 58.3917C89.4016 59.2844 88.6356 60.1654 87.5911 61.0347C86.5465 61.9039 85.3627 62.456 84.0396 62.6909C82.2407 63.0081 80.7551 62.7731 79.5829 61.9509C78.4107 61.1404 77.6795 59.8717 77.3777 58.145C77.1688 56.9469 77.2268 55.784 77.5402 54.668C77.8536 53.5404 78.4107 52.6007 79.1883 51.8371C79.9659 51.0736 80.9176 50.592 82.0318 50.3923C83.0299 50.2161 83.8771 50.3688 84.5851 50.8622C85.2931 51.3555 85.7341 52.1073 85.9082 53.141C86.1171 54.3391 85.8734 55.4433 85.177 56.4535C84.4806 57.4637 83.1575 58.4034 81.2193 59.2727C81.788 60.001 82.6701 60.2476 83.8771 60.0362C84.6547 59.8952 85.4788 59.4724 86.3724 58.7441C87.2661 58.0158 87.9973 57.1466 88.5544 56.1364C88.7169 55.8544 88.9258 55.69 89.1811 55.643C89.4016 55.6078 89.5873 55.6782 89.7614 55.8662ZM83.7843 48.0195C83.5057 47.8668 83.2852 47.5261 83.1227 46.9976L81.73 42.4869L80.2908 47.5027C80.1284 48.09 79.9194 48.5011 79.6525 48.7478C79.3972 48.9945 79.0838 49.1472 78.724 49.2059C78.3642 49.2646 78.0625 49.2411 77.8188 49.1119C77.575 48.9827 77.4242 48.7713 77.3661 48.4541C77.3197 48.1605 77.3545 47.8316 77.4822 47.4674L79.49 41.9231C79.7105 41.324 79.9775 40.8659 80.3257 40.5252C80.6622 40.1846 81.1033 39.9731 81.6371 39.8792C82.1478 39.7852 82.5772 39.8674 82.9254 40.1376C83.2736 40.396 83.5754 40.8541 83.8539 41.5002L85.8037 45.9874C85.8966 46.187 85.9546 46.375 85.9778 46.5512C86.0591 46.9858 85.9662 47.35 85.7225 47.6319C85.4788 47.9138 85.1654 48.09 84.7708 48.1605C84.3994 48.2192 84.0628 48.1722 83.7843 48.0195ZM81.1961 68.2C80.8247 67.9651 80.6042 67.5775 80.5114 67.0371C80.4185 66.5085 80.5462 66.0269 80.8944 65.5923C81.2425 65.1577 81.73 64.8875 82.3451 64.7818C82.9022 64.6878 83.3781 64.7348 83.7727 64.9462C84.1673 65.1577 84.411 65.5101 84.4922 66.0152C84.5967 66.626 84.4922 67.1428 84.1557 67.5657C83.8307 67.9886 83.3432 68.2588 82.6933 68.3762C82.0666 68.5054 81.5675 68.4467 81.1961 68.2ZM80.6158 54.4331C80.3024 55.2554 80.2444 56.1951 80.4301 57.264L80.4417 57.311C81.4166 56.8881 82.1478 56.383 82.6469 55.784C83.1459 55.1966 83.3432 54.5741 83.2272 53.928C83.1691 53.5991 83.0299 53.3524 82.821 53.1762C82.6005 53.0118 82.3451 52.953 82.0318 53.0118C81.3934 53.1292 80.9176 53.6109 80.6158 54.4331Z" fill="white"/>
<path d="M92.373 45.2239C93.3014 45.8112 92.106 49.6523 92.1292 50.9092C92.1641 51.4143 92.6863 51.4261 93.7309 50.968C98.7331 48.7949 100.381 51.3321 101.194 54.1278C101.368 54.7738 105.882 51.5788 106.509 54.069C107.171 56.7707 101.983 55.1145 100.625 59.0026C98.8375 64.0888 91.6766 63.3253 94.4737 58.568C95.2397 57.1466 96.7368 56.019 97.8162 54.7856C97.735 54.5624 97.7001 54.4332 97.7118 54.4097C97.3172 53.4465 96.8413 52.9649 96.2842 52.9531C94.8451 53.0001 92.5819 55.2907 91.723 56.5241C90.0169 58.9438 87.1967 81.2505 86.686 84.3163C85.8504 89.4496 85.8387 97.7544 83.6452 101.854C82.1712 104.65 81.2428 104.931 80.8481 102.664L89.0304 52.0251L89.4714 47.0446C89.9937 46.3516 91.3168 44.6013 92.373 45.2239Z" fill="white"/>
<path d="M170.319 81.6031L170.4 81.6501C171.247 82.0847 170.737 82.7073 169.228 83.0596C168.926 83.1301 168.16 83.1771 167.766 83.2124C167.766 83.2124 146.898 84.5162 121.306 86.5484C95.7151 88.5805 65.1679 91.3057 46.1107 94.0896C44.7412 94.2776 43.2324 94.1836 42.5593 93.843C41.7004 93.4083 42.2227 92.7858 43.7315 92.4334L44.335 92.2924C64.3787 89.344 95.0187 86.6541 120.842 84.6337C146.666 82.6133 167.533 81.3094 167.533 81.3094C168.543 81.2624 169.808 81.3447 170.319 81.6031Z" fill="white"/>
<path d="M115.898 14.4482C116.061 14.5187 116.247 14.6362 116.444 14.7771C117.639 15.6934 116.502 19.4523 116.293 20.8501C114.424 33.1487 113.473 47.3033 111.279 59.038C110.919 60.988 108.703 69.9036 108.807 70.855C115.457 70.4322 120.773 68.9169 128.212 68.4587C131.091 68.2825 136.348 66.9317 137.033 69.0578L137.103 69.5864C137.103 69.7156 137.103 69.8566 137.068 69.9975C136.755 71.877 132.414 71.5833 130.65 71.6655C123.326 72.0297 115.898 73.0281 108.575 74.52C105.662 75.1073 106.033 80.6046 101.507 81.791L99.9285 82.0142C97.4912 82.1082 94.7406 80.957 93.7076 79.3243L93.4175 77.2569C93.963 75.6946 96.3074 74.0266 101.693 72.711C105.465 71.8065 104.675 72.4643 105.662 68.8346C106.718 64.8761 107.507 60.9762 108.134 56.9237C109.457 48.4544 110.699 39.8677 111.558 31.3397C112.01 27.0405 112.66 22.7883 113.217 18.5125C113.357 17.5611 113.658 15.4584 114.529 14.6362L115.898 14.4482ZM97.1662 78.0556C99.6267 79.43 101.797 78.6547 102.969 76.1057C102.737 76.1175 102.447 76.141 102.145 76.188C100.474 76.4346 97.9787 77.2334 97.1662 78.0556Z" fill="white"/>
<path d="M127.458 54.9152C125.59 57.7343 122.978 56.5362 122.433 57.3937C122.259 57.6521 121.841 58.8855 121.98 59.6608C122.433 62.104 132.867 52.6011 134.027 52.2604C135.014 51.9668 136.14 52.7773 135.397 54.1164C132.495 56.8886 125.056 63.3257 121.516 63.126C120.82 63.0907 120.263 62.7618 119.821 62.2215C118.139 60.1541 119.543 55.4203 120.912 51.9315C121.62 50.1343 122.526 49.0889 123.988 48.7247C126.843 48.02 129.211 52.2604 127.458 54.9152ZM122.468 47.045C121.528 45.9878 124.336 43.0982 126.135 41.8413C126.286 41.7356 127.679 41.3832 128.317 44.8249C129.095 48.9479 126.739 47.2329 126.681 46.7396C126.112 41.3832 124.301 49.1124 122.468 47.045ZM124.116 53.9167C126.031 53.9167 124.835 51.6731 124.197 51.7553L124.185 51.6966C123.756 52.3427 122.491 53.9167 124.116 53.9167Z" fill="white"/>
<path d="M154.779 41.7589C155.672 41.6766 156.566 41.6179 157.448 41.477C158.226 41.3477 159.015 41.1833 159.758 40.9249C161.417 40.3728 162.508 39.2216 163.065 37.5536C163.472 36.3202 163.634 35.0516 163.727 33.7712C163.773 33.0547 163.797 32.3264 163.831 31.6099C163.843 31.3984 163.866 31.187 163.866 30.9873C164.006 32.5026 164.122 34.0179 164.284 35.5332C164.342 36.0618 164.481 36.5786 164.621 37.0955C165.247 39.4096 166.791 40.7487 169.066 41.2303C170.029 41.4417 171.027 41.5239 172.014 41.6531C172.362 41.7001 172.722 41.7119 173 41.7354C171.99 41.8646 170.911 41.9468 169.843 42.1465C166.57 42.7691 164.934 44.4136 164.377 47.7496C164.098 49.4293 164.006 51.1561 163.855 52.5539C163.82 51.9079 163.785 50.9446 163.715 49.9814C163.623 48.6423 163.448 47.315 163.007 46.0463C162.381 44.2491 161.15 43.098 159.375 42.5106C158.017 42.0525 156.612 41.8998 155.197 41.8176C155.057 41.8059 154.906 41.8059 154.767 41.7941C154.779 41.7824 154.779 41.7706 154.779 41.7589Z" fill="white"/>
<path d="M0 97.6256C1.3463 97.4964 2.71582 97.4259 4.05052 97.2027C5.23434 97.0148 6.41815 96.7563 7.55555 96.3687C10.0625 95.5347 11.7221 93.7845 12.5694 91.2472C13.1845 89.3795 13.4398 87.4531 13.5675 85.5032C13.6487 84.4107 13.6719 83.3183 13.7184 82.2141C13.73 81.897 13.7648 81.5798 13.7648 81.2744C13.9737 83.5767 14.1594 85.879 14.4031 88.1696C14.4844 88.9684 14.7049 89.7671 14.9138 90.5424C15.8655 94.0546 18.2099 96.075 21.6569 96.8151C23.1193 97.1322 24.6281 97.2614 26.1136 97.4494C26.6475 97.5198 27.193 97.5433 27.6108 97.5668C26.0788 97.7665 24.4424 97.884 22.8291 98.2011C17.8617 99.1526 15.3896 101.643 14.5424 106.706C14.113 109.255 13.9737 111.862 13.7532 113.988C13.7068 113.002 13.6487 111.545 13.5443 110.089C13.405 108.056 13.1381 106.048 12.4649 104.11C11.5132 101.384 9.65625 99.6342 6.96364 98.7415C4.90937 98.0602 2.77385 97.8135 0.626728 97.6843C0.441031 97.6843 0.220515 97.6843 0 97.6726C0 97.6491 0 97.6373 0 97.6256Z" fill="white"/>
<path d="M128.468 23.681C130.429 23.4931 132.402 23.3874 134.34 23.0702C136.058 22.8 137.776 22.4124 139.424 21.8721C143.068 20.6622 145.471 18.1367 146.689 14.4483C147.594 11.7466 147.943 8.95088 148.14 6.11997C148.256 4.53419 148.291 2.9484 148.36 1.35088C148.384 0.892763 148.43 0.434649 148.43 -0.0117188C148.732 3.32429 148.999 6.66031 149.359 9.98457C149.486 11.1475 149.8 12.2986 150.101 13.4263C151.471 18.5243 154.883 21.4492 159.874 22.5181C161.998 22.9762 164.18 23.1642 166.338 23.4461C167.116 23.5518 167.893 23.5753 168.52 23.6223C166.303 23.9042 163.924 24.0921 161.591 24.5385C154.384 25.9129 150.798 29.5308 149.579 36.8606C148.964 40.5608 148.755 44.3431 148.43 47.4207C148.36 45.9877 148.279 43.8733 148.128 41.7589C147.919 38.8105 147.536 35.8974 146.562 33.1017C145.192 29.1549 142.476 26.6176 138.577 25.3138C135.594 24.3153 132.507 23.9747 129.396 23.775C129.083 23.7515 128.769 23.7397 128.456 23.728C128.468 23.728 128.468 23.7045 128.468 23.681Z" fill="white"/>
</g>
<defs>
<clipPath id="clip0_413_710">
<rect width="173" height="114" fill="white"/>
</clipPath>
</defs>
</svg>
