<svg width="82" height="54" viewBox="0 0 82 54" fill="none" xmlns="http://www.w3.org/2000/svg">
<g clip-path="url(#clip0_373_968)">
<path d="M14.9301 36.7678C14.534 36.6899 14.2699 36.3171 14.3359 35.9165C14.7375 33.6797 15.2436 31.4985 15.6507 29.7792C15.8543 28.9056 16.0303 28.1545 16.1513 27.5814C15.4362 28.3993 14.49 30.2188 13.7308 32.233C13.1807 33.6852 12.7736 35.2432 12.6581 36.6342C12.5536 37.9029 12.7021 39.0101 13.2247 39.6723C13.7583 40.34 14.7815 40.6015 16.4814 40.1675V40.1563C20.7063 39.0713 26.4164 32.6281 29.3706 26.1681C30.3718 23.9702 31.0484 21.7891 31.2189 19.8305C31.384 17.961 31.0979 16.3084 30.1902 15.0843C29.1285 13.6543 27.1921 12.7641 24.1115 12.6973C19.0944 12.5971 14.2479 15.7186 11.2773 19.48C10.1221 20.9378 9.25289 22.4957 8.77429 23.9814C8.31219 25.4169 8.22417 26.7801 8.58725 27.9208C8.99433 29.2117 10.012 30.2522 11.7944 30.842C12.1795 30.9644 12.3885 31.3817 12.2675 31.7712C12.141 32.1551 11.7339 32.361 11.3488 32.2386C9.07685 31.4818 7.75107 30.0964 7.20646 28.3715C6.74437 26.9137 6.85439 25.2444 7.399 23.5307C7.92711 21.8726 8.87881 20.1644 10.1496 18.5619C13.3512 14.5056 18.6268 11.1282 24.128 11.2395C27.7092 11.3118 30.0197 12.4247 31.34 14.2163C32.4842 15.752 32.8583 17.7495 32.6602 19.9696C32.4677 22.1063 31.747 24.4599 30.6798 26.7968C27.5772 33.5851 21.4544 40.4067 16.8335 41.5863C14.49 42.1873 12.9827 41.7087 12.086 40.5903C11.3048 39.5999 11.0683 38.1366 11.2003 36.5007C11.3323 34.9761 11.7779 33.2735 12.372 31.6933C13.6428 28.3158 15.7442 25.4559 17.07 25.6673C17.6806 25.773 17.8292 26.3128 17.6916 27.203C17.5816 27.8651 17.3451 28.8778 17.059 30.1075C16.6574 31.8213 16.1513 33.9801 15.7662 36.1613C15.7002 36.5786 15.3261 36.8401 14.9301 36.7678Z" fill="black"/>
<path d="M32.9902 26.3906C33.3093 26.0289 33.6009 25.9288 33.8704 26.1068C34.6296 26.5964 33.3753 27.6481 33.1828 28.8555C32.7867 31.3482 36.2414 28.2101 36.533 27.6481C36.852 27.4811 37.0941 27.509 37.2591 27.7371C37.4187 27.9597 37.4297 28.1878 37.3086 28.4271C36.522 29.8849 32.1431 33.6518 31.802 29.4731C31.747 28.8555 32.5556 26.8747 32.9902 26.3906ZM34.2225 22.8852C34.3435 22.8073 34.47 22.7739 34.6076 22.7906C34.8056 22.8295 34.9706 22.9019 35.1357 22.9909C35.3227 23.0855 35.3997 23.2468 35.3612 23.4917C35.0972 24.955 33.8429 25.6617 33.5513 24.6601C33.5128 24.5266 33.5128 24.3986 33.5679 24.2706C33.6174 24.1315 33.6834 23.9368 33.7824 23.6808C33.8814 23.4138 33.9474 23.258 33.9694 23.1968C34.0134 23.0688 34.107 22.9631 34.2225 22.8852Z" fill="black"/>
<path d="M42.5458 26.4631C42.6229 26.5521 42.6779 26.6801 42.7109 26.8525C42.7659 27.1808 42.7329 27.4535 42.6119 27.6593C42.3753 28.0822 42.0122 28.4995 41.5171 28.9113C41.022 29.323 40.4609 29.5845 39.8338 29.6958C38.9811 29.8461 38.277 29.7348 37.7213 29.3453C37.1657 28.9614 36.8192 28.3604 36.6761 27.5425C36.5771 26.975 36.6046 26.4241 36.7531 25.8955C36.9017 25.3614 37.1657 24.9162 37.5343 24.5546C37.9029 24.1929 38.354 23.9648 38.8821 23.8702C39.3552 23.7867 39.7568 23.859 40.0923 24.0927C40.4279 24.3264 40.637 24.6825 40.7195 25.1722C40.8185 25.7397 40.703 26.2627 40.3729 26.7413C40.0428 27.2198 39.4157 27.6649 38.497 28.0767C38.7666 28.4216 39.1846 28.5385 39.7568 28.4383C40.1253 28.3716 40.5159 28.1712 40.9395 27.8263C41.3631 27.4813 41.7097 27.0695 41.9737 26.591C42.0507 26.4575 42.1498 26.3796 42.2708 26.3573C42.3753 26.3406 42.4633 26.374 42.5458 26.4631ZM39.7128 22.7462C39.5807 22.6739 39.4762 22.5125 39.3992 22.2621L38.7391 20.1255L38.0569 22.5014C37.9799 22.7796 37.8809 22.9743 37.7544 23.0912C37.6333 23.208 37.4848 23.2804 37.3143 23.3082C37.1437 23.336 37.0007 23.3249 36.8852 23.2637C36.7697 23.2025 36.6981 23.1023 36.6706 22.9521C36.6486 22.813 36.6651 22.6572 36.7256 22.4847L37.6773 19.8584C37.7819 19.5746 37.9084 19.3576 38.0734 19.1963C38.233 19.0349 38.442 18.9348 38.695 18.8903C38.9371 18.8457 39.1406 18.8847 39.3057 19.0127C39.4707 19.1351 39.6137 19.3521 39.7458 19.6581L40.67 21.7836C40.714 21.8782 40.7415 21.9672 40.7525 22.0507C40.791 22.2566 40.747 22.4291 40.6315 22.5626C40.5159 22.6961 40.3674 22.7796 40.1804 22.813C40.0043 22.8408 39.8448 22.8185 39.7128 22.7462ZM38.486 32.3054C38.31 32.1941 38.2055 32.0105 38.1614 31.7546C38.1174 31.5042 38.1779 31.276 38.343 31.0702C38.508 30.8643 38.7391 30.7363 39.0306 30.6862C39.2947 30.6417 39.5202 30.664 39.7073 30.7641C39.8943 30.8643 40.0098 31.0312 40.0483 31.2705C40.0978 31.5598 40.0483 31.8046 39.8888 32.0049C39.7348 32.2053 39.5037 32.3332 39.1957 32.3889C38.8986 32.4501 38.662 32.4223 38.486 32.3054ZM38.2109 25.7842C38.0624 26.1737 38.0349 26.6189 38.1229 27.1252L38.1284 27.1474C38.5905 26.9471 38.9371 26.7079 39.1736 26.4241C39.4102 26.1459 39.5037 25.851 39.4487 25.545C39.4212 25.3892 39.3552 25.2723 39.2562 25.1889C39.1516 25.111 39.0306 25.0832 38.8821 25.111C38.5795 25.1666 38.354 25.3947 38.2109 25.7842Z" fill="black"/>
<path d="M43.7834 21.422C44.2235 21.7002 43.6569 23.5196 43.6679 24.115C43.6844 24.3543 43.932 24.3598 44.4271 24.1428C46.7981 23.1135 47.5792 24.3153 47.9643 25.6396C48.0468 25.9456 50.1868 24.4322 50.4838 25.6118C50.7974 26.8915 48.3384 26.107 47.6947 27.9487C46.8476 30.358 43.4534 29.9963 44.7791 27.7428C45.1422 27.0696 45.8519 26.5354 46.3635 25.9512C46.325 25.8455 46.3085 25.7843 46.314 25.7731C46.1269 25.3169 45.9014 25.0887 45.6373 25.0832C44.9552 25.1054 43.8825 26.1904 43.4754 26.7747C42.6667 27.9209 41.3299 38.4872 41.0879 39.9394C40.6918 42.371 40.6863 46.3048 39.6466 48.2467C38.9479 49.571 38.5078 49.7045 38.3208 48.6306L42.1991 24.6436L42.4081 22.2844C42.6557 21.9561 43.2828 21.1271 43.7834 21.422Z" fill="black"/>
<path d="M80.7293 38.6538L80.7678 38.6761C81.1693 38.882 80.9273 39.1769 80.2121 39.3438C80.0691 39.3772 79.706 39.3994 79.519 39.4161C79.519 39.4161 69.6279 40.0337 57.4979 40.9963C45.3679 41.9589 30.8889 43.2498 21.856 44.5685C21.2069 44.6575 20.4918 44.613 20.1727 44.4517C19.7656 44.2458 20.0132 43.9509 20.7283 43.784L21.0144 43.7172C30.5148 42.3206 45.0379 41.0464 57.2779 40.0894C69.5179 39.1324 79.409 38.5147 79.409 38.5147C79.8876 38.4925 80.4872 38.5314 80.7293 38.6538Z" fill="black"/>
<path d="M54.9343 6.84375C55.0113 6.87713 55.0993 6.93278 55.1928 6.99955C55.7594 7.43355 55.2203 9.21407 55.1213 9.87621C54.2356 15.7019 53.7845 22.4067 52.7448 27.9652C52.5743 28.8889 51.5236 33.1121 51.5731 33.5628C54.7252 33.3624 57.2448 32.6447 60.771 32.4277C62.1353 32.3442 64.6273 31.7043 64.9519 32.7114L64.9849 32.9618C64.9849 33.023 64.9849 33.0898 64.9684 33.1566C64.8198 34.0468 62.7624 33.9077 61.9262 33.9467C58.455 34.1192 54.9343 34.5921 51.4631 35.2988C50.0823 35.577 50.2583 38.181 48.1129 38.743L47.3647 38.8487C46.2095 38.8932 44.9057 38.3479 44.4161 37.5745L44.2786 36.5952C44.5371 35.8552 45.6484 35.0651 48.2009 34.4419C49.9888 34.0135 49.6147 34.325 50.0823 32.6057C50.5829 30.7306 50.9569 28.8833 51.254 26.9637C51.8811 22.9519 52.4698 18.8846 52.8769 14.845C53.0914 12.8085 53.3995 10.7943 53.6635 8.76894C53.7295 8.31825 53.8726 7.32227 54.2851 6.93278L54.9343 6.84375ZM46.0554 36.9736C47.2217 37.6246 48.2504 37.2574 48.806 36.0499C48.696 36.0555 48.5585 36.0666 48.4154 36.0889C47.6233 36.2057 46.4405 36.5841 46.0554 36.9736Z" fill="black"/>
<path d="M60.4133 26.0123C59.5276 27.3477 58.2899 26.7801 58.0313 27.1863C57.9488 27.3087 57.7508 27.8929 57.8168 28.2602C58.0313 29.4175 62.9768 24.9161 63.527 24.7548C63.9946 24.6157 64.5282 24.9996 64.1761 25.6339C62.8008 26.947 59.2746 29.9962 57.5967 29.9016C57.2667 29.8849 57.0026 29.7291 56.7936 29.4732C55.9959 28.4939 56.6615 26.2515 57.3107 24.599C57.6462 23.7477 58.0753 23.2525 58.7685 23.08C60.1217 22.7461 61.244 24.7548 60.4133 26.0123ZM58.0478 22.2843C57.6022 21.7835 58.9335 20.4147 59.7862 19.8194C59.8577 19.7693 60.5178 19.6024 60.8204 21.2327C61.189 23.1857 60.0722 22.3733 60.0447 22.1396C59.7752 19.6024 58.917 23.2636 58.0478 22.2843ZM58.829 25.5393C59.7367 25.5393 59.1701 24.4766 58.8675 24.5155L58.862 24.4877C58.6584 24.7937 58.0588 25.5393 58.829 25.5393Z" fill="black"/>
<path d="M73.3632 19.7805C73.7868 19.7416 74.2103 19.7138 74.6284 19.647C74.997 19.5858 75.3711 19.5079 75.7231 19.3855C76.5098 19.124 77.0269 18.5787 77.291 17.7886C77.4835 17.2043 77.5605 16.6034 77.6045 15.9969C77.6266 15.6575 77.6376 15.3125 77.6541 14.9731C77.6596 14.873 77.6706 14.7728 77.6706 14.6782C77.7366 15.396 77.7916 16.1138 77.8686 16.8315C77.8961 17.0819 77.9621 17.3268 78.0281 17.5716C78.3252 18.6677 79.0568 19.302 80.1351 19.5302C80.5917 19.6303 81.0648 19.6693 81.5324 19.7305C81.6974 19.7527 81.8679 19.7583 82 19.7694C81.5214 19.8306 81.0097 19.8696 80.5036 19.9642C78.9523 20.2591 78.1767 21.038 77.9126 22.6183C77.7806 23.4139 77.7366 24.2319 77.6651 24.894C77.6485 24.588 77.632 24.1317 77.599 23.6754C77.555 23.0411 77.4725 22.4124 77.2635 21.8115C76.9664 20.9601 76.3833 20.4149 75.5416 20.1366C74.898 19.9196 74.2323 19.8473 73.5612 19.8084C73.4952 19.8028 73.4237 19.8028 73.3577 19.7972C73.3632 19.7917 73.3632 19.7861 73.3632 19.7805Z" fill="black"/>
<path d="M0 46.2436C0.638132 46.1824 1.28727 46.149 1.9199 46.0433C2.48101 45.9542 3.04213 45.8318 3.58124 45.6482C4.76949 45.2532 5.55615 44.4241 5.95774 43.2222C6.2493 42.3375 6.37032 41.425 6.43083 40.5014C6.46934 39.9839 6.48034 39.4664 6.50235 38.9434C6.50785 38.7932 6.52435 38.643 6.52435 38.4983C6.62337 39.5889 6.71139 40.6794 6.82692 41.7644C6.86542 42.1428 6.96995 42.5212 7.06897 42.8884C7.52006 44.5521 8.63129 45.5091 10.2651 45.8596C10.9583 46.0099 11.6734 46.0711 12.3776 46.1601C12.6306 46.1935 12.8892 46.2046 13.0872 46.2158C12.3611 46.3103 11.5854 46.366 10.8207 46.5162C8.46626 46.9669 7.29451 48.1465 6.89293 50.5447C6.68939 51.7521 6.62337 52.9873 6.51885 53.9944C6.49685 53.527 6.46934 52.8371 6.41983 52.1471C6.35382 51.1845 6.22729 50.2331 5.90823 49.315C5.45713 48.0241 4.57695 47.195 3.30068 46.7722C2.32698 46.4494 1.31477 46.3326 0.297062 46.2714C0.209043 46.2714 0.104522 46.2714 0 46.2658C0 46.2547 0 46.2491 0 46.2436Z" fill="black"/>
<path d="M60.8922 11.2173C61.8219 11.1282 62.7571 11.0782 63.6758 10.9279C64.49 10.7999 65.3041 10.6163 66.0853 10.3604C67.8127 9.78728 68.9514 8.59098 69.529 6.84384C69.9581 5.56409 70.1231 4.23983 70.2167 2.89887C70.2717 2.14771 70.2882 1.39655 70.3212 0.639825C70.3322 0.422824 70.3542 0.205822 70.3542 -0.00561523C70.4972 1.5746 70.6237 3.15482 70.7943 4.72947C70.8548 5.28032 71.0033 5.82561 71.1463 6.35976C71.7955 8.7746 73.4128 10.1601 75.7783 10.6664C76.785 10.8834 77.8192 10.9724 78.8424 11.106C79.211 11.1561 79.5796 11.1672 79.8767 11.1894C78.8259 11.323 77.6982 11.412 76.5925 11.6234C73.1763 12.2744 71.4764 13.9882 70.8988 17.4602C70.6072 19.2129 70.5082 21.0046 70.3542 22.4624C70.3212 21.7836 70.2827 20.782 70.2112 19.7805C70.1121 18.3839 69.9306 17.004 69.4685 15.6797C68.8194 13.8101 67.5321 12.6083 65.6837 11.9907C64.2699 11.5177 62.8066 11.3564 61.3323 11.2618C61.1838 11.2506 61.0352 11.2451 60.8867 11.2395C60.8922 11.2395 60.8922 11.2284 60.8922 11.2173Z" fill="black"/>
</g>
<defs>
<clipPath id="clip0_373_968">
<rect width="82" height="54" fill="white"/>
</clipPath>
</defs>
</svg>
