<svg width="18" height="11" viewBox="0 0 18 11" fill="none" xmlns="http://www.w3.org/2000/svg">
<g clip-path="url(#clip0_398_753)">
<path d="M1.36615 5.9364L0.772551 5.363C0.685257 5.27867 0.541222 5.27867 0.453928 5.363L0.0654704 5.73824C-0.0218235 5.82256 -0.0218235 5.96169 0.0654704 6.04602L0.81838 6.77331L1.36397 7.30033C1.45126 7.38465 1.5953 7.38465 1.68259 7.30033L2.22818 6.77331L4.22721 4.8423C4.3145 4.75798 4.3145 4.61884 4.22721 4.53452L3.84093 4.16139C3.75364 4.07706 3.6096 4.07706 3.52231 4.16139L1.68259 5.9385C1.59748 6.02283 1.45344 6.02283 1.36615 5.9364Z" fill="#231F20"/>
<path d="M1.36615 1.84036L0.772551 1.26696C0.685257 1.18264 0.541222 1.18264 0.453928 1.26696L0.0654704 1.64009C-0.0218235 1.72442 -0.0218235 1.86355 0.0654704 1.94787L0.81838 2.67516L1.36397 3.20218C1.45126 3.28651 1.5953 3.28651 1.68259 3.20218L2.22818 2.67516L4.22721 0.744155C4.3145 0.659831 4.3145 0.520698 4.22721 0.436374L3.84311 0.0632426C3.75582 -0.0210809 3.61178 -0.0210809 3.52449 0.0632426L1.68477 1.84036C1.59748 1.92468 1.45344 1.92468 1.36615 1.84036Z" fill="#231F20"/>
<path d="M17.7249 10.8503H5.21563C5.06287 10.8503 4.93848 10.7301 4.93848 10.5825V9.07315C4.93848 8.92558 5.06287 8.80542 5.21563 8.80542H17.7249C17.8776 8.80542 18.002 8.92558 18.002 9.07315V10.5825C17.9998 10.7301 17.8754 10.8503 17.7249 10.8503Z" fill="#231F20"/>
<path d="M17.7249 2.65617H5.21563C5.06287 2.65617 4.93848 2.53601 4.93848 2.38845V0.879055C4.93848 0.731489 5.06287 0.611328 5.21563 0.611328H17.7249C17.8776 0.611328 18.002 0.731489 18.002 0.879055V2.38845C17.9998 2.53601 17.8754 2.65617 17.7249 2.65617Z" fill="#231F20"/>
<path d="M17.7249 6.75212H5.21563C5.06287 6.75212 4.93848 6.63196 4.93848 6.48439V4.975C4.93848 4.82744 5.06287 4.70728 5.21563 4.70728H17.7249C17.8776 4.70728 18.002 4.82744 18.002 4.975V6.48439C17.9998 6.63407 17.8754 6.75212 17.7249 6.75212Z" fill="#231F20"/>
<path d="M1.79372 10.9979C2.46265 10.9979 3.00493 10.4741 3.00493 9.82795C3.00493 9.18178 2.46265 8.65796 1.79372 8.65796C1.12479 8.65796 0.58252 9.18178 0.58252 9.82795C0.58252 10.4741 1.12479 10.9979 1.79372 10.9979Z" fill="#231F20"/>
</g>
<defs>
<clipPath id="clip0_398_753">
<rect width="18" height="11" fill="white"/>
</clipPath>
</defs>
</svg>
