<svg width="18" height="15" viewBox="0 0 18 15" fill="none" xmlns="http://www.w3.org/2000/svg">
<g clip-path="url(#clip0_373_1064)">
<path d="M13.2684 0C11.09 0 9.95362 0.972406 8.96953 2.5997C7.98544 0.972406 6.84902 0 4.67062 0C2.09005 0 0 1.94481 0 4.34322C0 5.80042 0.520988 7.14421 1.68788 8.5447C3.34529 10.5746 6.05078 12.4031 8.72275 14.8894C8.87508 15.0312 9.12187 15.0312 9.27725 14.8894C13.5792 10.8864 18 8.5447 18 4.37157C17.9391 1.94481 15.849 0 13.2684 0ZM8.96953 14.1212C4.79248 10.3194 0.767772 8.08826 0.767772 4.34322C0.767772 2.34171 2.51963 0.714421 4.66757 0.714421C6.51083 0.714421 7.49492 1.42884 8.63135 3.5154C8.78368 3.77339 9.1828 3.77339 9.30772 3.5154C10.4441 1.42884 11.4282 0.714421 13.2715 0.714421C15.4225 0.714421 17.2048 2.34455 17.2048 4.34322C17.1713 8.08826 13.1466 10.2911 8.96953 14.1212Z" fill="black"/>
</g>
<defs>
<clipPath id="clip0_373_1064">
<rect width="18" height="15" fill="white"/>
</clipPath>
</defs>
</svg>
