<svg width="14" height="14" viewBox="0 0 14 14" fill="none" xmlns="http://www.w3.org/2000/svg">
<path d="M6.65873 1.2363C8.43852 1.2363 8.64895 1.24315 9.35112 1.27622C10.0012 1.30702 10.3534 1.41878 10.5882 1.51231C10.8773 1.62179 11.1398 1.79743 11.3546 2.02553C11.5761 2.24679 11.7467 2.51595 11.853 2.81476C11.9438 3.05654 12.0524 3.42036 12.0823 4.0887C12.1144 4.81178 12.121 5.02961 12.121 6.86126C12.121 8.69405 12.1144 8.91074 12.0823 9.63382C12.0524 10.3033 11.9438 10.666 11.853 10.9078C11.6293 11.5065 11.1697 11.9787 10.5882 12.2102C10.3534 12.3037 10.0001 12.4155 9.35112 12.4463C8.64895 12.4794 8.43741 12.4862 6.65873 12.4862C4.87893 12.4862 4.6685 12.4794 3.96633 12.4463C3.31621 12.4155 2.96402 12.3037 2.72922 12.2102C2.44016 12.1007 2.17768 11.9251 1.96282 11.697C1.74131 11.4757 1.57075 11.2066 1.46443 10.9078C1.37361 10.666 1.26507 10.3022 1.23517 9.63382C1.20305 8.91074 1.19641 8.69291 1.19641 6.86126C1.19641 5.02847 1.20305 4.81178 1.23517 4.0887C1.26507 3.41922 1.37361 3.05654 1.46443 2.81476C1.57075 2.51709 1.74131 2.24679 1.96282 2.02553C2.17768 1.79743 2.43905 1.62179 2.72922 1.51231C2.96402 1.41878 3.31732 1.30702 3.96633 1.27622C4.6685 1.24315 4.87893 1.2363 6.65873 1.2363ZM6.65873 0C4.84903 0 4.62199 0.00798347 3.91095 0.041058C3.20214 0.0741326 2.71704 0.190464 2.29397 0.360399C1.84985 0.532614 1.44671 0.802913 1.11334 1.15191C0.77444 1.4952 0.511956 1.9092 0.34472 2.36768C0.179698 2.80449 0.0678372 3.30289 0.0357189 4.03281C0.00360067 4.76502 -0.00415039 4.99882 -0.00415039 6.8624C-0.00415039 8.72598 0.00360067 8.95978 0.0357189 9.69199C0.0678372 10.4219 0.180807 10.9214 0.345828 11.3571C0.513065 11.8145 0.775549 12.2296 1.11445 12.5729C1.44782 12.9219 1.84985 13.1922 2.29507 13.3644C2.71926 13.5343 3.20324 13.6495 3.91206 13.6837C4.62309 13.7168 4.85013 13.7248 6.65983 13.7248C8.46953 13.7248 8.69658 13.7168 9.40761 13.6837C10.1164 13.6507 10.6015 13.5343 11.0246 13.3644C11.9195 13.0074 12.6272 12.2798 12.9738 11.3571C13.1389 10.9203 13.2507 10.4219 13.2839 9.69199C13.3161 8.95978 13.3238 8.72598 13.3238 6.8624C13.3238 4.99882 13.3161 4.76502 13.2839 4.03281C13.2518 3.30289 13.1389 2.80335 12.9738 2.36768C12.8066 1.91034 12.5441 1.4952 12.2052 1.15191C11.8719 0.802913 11.4698 0.532614 11.0246 0.360399C10.6004 0.190464 10.1164 0.0752731 9.40761 0.0421986C8.69547 0.0079835 8.46842 0 6.65873 0Z" fill="white"/>
<path d="M6.65858 3.33838C4.76914 3.33838 3.23633 4.91569 3.23633 6.86253C3.23633 8.80823 4.76804 10.3867 6.65858 10.3867C8.54802 10.3867 10.0808 8.80937 10.0808 6.86253C10.0797 4.91569 8.54802 3.33838 6.65858 3.33838ZM6.65858 9.14924C5.43144 9.14924 4.43799 8.12507 4.43799 6.86139C4.43799 5.59771 5.43255 4.57468 6.65969 4.57468C7.88683 4.57468 8.88028 5.59885 8.88028 6.86253C8.87917 8.12506 7.88461 9.14924 6.65858 9.14924Z" fill="white"/>
<path d="M10.2149 2.37573C10.6568 2.37573 11.0146 2.74411 11.0146 3.19917C11.0146 3.65423 10.6568 4.02262 10.2149 4.02262C9.77301 4.02262 9.41528 3.65423 9.41528 3.19917C9.41528 2.74411 9.77412 2.37573 10.2149 2.37573Z" fill="white"/>
</svg>
