<svg width="70" height="21" viewBox="0 0 70 21" fill="none" xmlns="http://www.w3.org/2000/svg">
<rect x="1.21924" y="0.5" width="67.5614" height="19.4896" rx="4.5" fill="white" stroke="#F0EEE1"/>
<mask id="path-2-outside-1_387_1110" maskUnits="userSpaceOnUse" x="5" y="4" width="58" height="11" fill="black">
<rect fill="white" x="5" y="4" width="58" height="11"/>
<path d="M7.82297 14L10.733 10.03V10.8L7.98297 7H9.12297L11.303 9.99L10.853 10L13.023 7H14.113L11.383 10.74V10.02L14.293 14H13.143L10.823 10.81H11.263L8.97297 14H7.82297ZM15.9971 10.02H19.5971V10.87H15.9971V10.02ZM16.0871 13.13H20.1671V14H15.0871V7H20.0271V7.87H16.0871V13.13ZM21.6363 14V7H22.4563L25.5963 12.29H25.1563L28.2563 7H29.0763L29.0863 14H28.1263L28.1163 8.51H28.3463L25.5863 13.15H25.1263L22.3463 8.51H22.5963V14H21.6363ZM34.9627 14V7.87H32.5627V7H38.3527V7.87H35.9527V14H34.9627ZM44.3118 7H45.3118V14H44.3118V7ZM40.2918 14H39.2918V7H40.2918V14ZM44.4018 10.88H40.1918V10.01H44.4018V10.88ZM48.167 10.02H51.767V10.87H48.167V10.02ZM48.257 13.13H52.337V14H47.257V7H52.197V7.87H48.257V13.13ZM47.947 6.43L49.277 5.13H50.197L51.527 6.43H50.657L49.337 5.33H50.137L48.817 6.43H47.947ZM53.8062 14V7H54.6262L57.7662 12.29H57.3262L60.4262 7H61.2462L61.2562 14H60.2962L60.2862 8.51H60.5162L57.7562 13.15H57.2962L54.5162 8.51H54.7662V14H53.8062Z"/>
</mask>
<path d="M7.82297 14L10.733 10.03V10.8L7.98297 7H9.12297L11.303 9.99L10.853 10L13.023 7H14.113L11.383 10.74V10.02L14.293 14H13.143L10.823 10.81H11.263L8.97297 14H7.82297ZM15.9971 10.02H19.5971V10.87H15.9971V10.02ZM16.0871 13.13H20.1671V14H15.0871V7H20.0271V7.87H16.0871V13.13ZM21.6363 14V7H22.4563L25.5963 12.29H25.1563L28.2563 7H29.0763L29.0863 14H28.1263L28.1163 8.51H28.3463L25.5863 13.15H25.1263L22.3463 8.51H22.5963V14H21.6363ZM34.9627 14V7.87H32.5627V7H38.3527V7.87H35.9527V14H34.9627ZM44.3118 7H45.3118V14H44.3118V7ZM40.2918 14H39.2918V7H40.2918V14ZM44.4018 10.88H40.1918V10.01H44.4018V10.88ZM48.167 10.02H51.767V10.87H48.167V10.02ZM48.257 13.13H52.337V14H47.257V7H52.197V7.87H48.257V13.13ZM47.947 6.43L49.277 5.13H50.197L51.527 6.43H50.657L49.337 5.33H50.137L48.817 6.43H47.947ZM53.8062 14V7H54.6262L57.7662 12.29H57.3262L60.4262 7H61.2462L61.2562 14H60.2962L60.2862 8.51H60.5162L57.7562 13.15H57.2962L54.5162 8.51H54.7662V14H53.8062Z" fill="black"/>
<path d="M7.82297 14L7.01643 13.4088L5.8501 15H7.82297V14ZM10.733 10.03H11.733V6.97423L9.92643 9.43881L10.733 10.03ZM10.733 10.8L9.92285 11.3863L11.733 13.8875V10.8H10.733ZM7.98297 7V6H6.02489L7.17285 7.58627L7.98297 7ZM9.12297 7L9.931 6.41086L9.63144 6H9.12297V7ZM11.303 9.99L11.3252 10.9898L13.2385 10.9472L12.111 9.40086L11.303 9.99ZM10.853 10L10.0427 9.41392L8.86329 11.0445L10.8752 10.9998L10.853 10ZM13.023 7V6H12.5121L12.2127 6.41392L13.023 7ZM14.113 7L14.9207 7.58958L16.081 6H14.113V7ZM11.383 10.74H10.383V13.8061L12.1907 11.3296L11.383 10.74ZM11.383 10.02L12.1902 9.42978L10.383 6.95802V10.02H11.383ZM14.293 14V15H16.2629L15.1002 13.4098L14.293 14ZM13.143 14L12.3342 14.5882L12.6337 15H13.143V14ZM10.823 10.81V9.81H8.8592L10.0142 11.3982L10.823 10.81ZM11.263 10.81L12.0753 11.3932L13.2118 9.81H11.263V10.81ZM8.97297 14V15H9.48609L9.78532 14.5832L8.97297 14ZM7.82297 14L8.6295 14.5912L11.5395 10.6212L10.733 10.03L9.92643 9.43881L7.01643 13.4088L7.82297 14ZM10.733 10.03H9.73297V10.8H10.733H11.733V10.03H10.733ZM10.733 10.8L11.5431 10.2137L8.79309 6.41373L7.98297 7L7.17285 7.58627L9.92285 11.3863L10.733 10.8ZM7.98297 7V8H9.12297V7V6H7.98297V7ZM9.12297 7L8.31493 7.58913L10.4949 10.5791L11.303 9.99L12.111 9.40086L9.931 6.41086L9.12297 7ZM11.303 9.99L11.2808 8.99025L10.8308 9.00025L10.853 10L10.8752 10.9998L11.3252 10.9898L11.303 9.99ZM10.853 10L11.6632 10.5861L13.8332 7.58608L13.023 7L12.2127 6.41392L10.0427 9.41392L10.853 10ZM13.023 7V8H14.113V7V6H13.023V7ZM14.113 7L13.3053 6.41042L10.5753 10.1504L11.383 10.74L12.1907 11.3296L14.9207 7.58958L14.113 7ZM11.383 10.74H12.383V10.02H11.383H10.383V10.74H11.383ZM11.383 10.02L10.5757 10.6102L13.4857 14.5902L14.293 14L15.1002 13.4098L12.1902 9.42978L11.383 10.02ZM14.293 14V13H13.143V14V15H14.293V14ZM13.143 14L13.9517 13.4118L11.6317 10.2218L10.823 10.81L10.0142 11.3982L12.3342 14.5882L13.143 14ZM10.823 10.81V11.81H11.263V10.81V9.81H10.823V10.81ZM11.263 10.81L10.4506 10.2268L8.16061 13.4168L8.97297 14L9.78532 14.5832L12.0753 11.3932L11.263 10.81ZM8.97297 14V13H7.82297V14V15H8.97297V14ZM15.9971 10.02V9.02H14.9971V10.02H15.9971ZM19.5971 10.02H20.5971V9.02H19.5971V10.02ZM19.5971 10.87V11.87H20.5971V10.87H19.5971ZM15.9971 10.87H14.9971V11.87H15.9971V10.87ZM16.0871 13.13H15.0871V14.13H16.0871V13.13ZM20.1671 13.13H21.1671V12.13H20.1671V13.13ZM20.1671 14V15H21.1671V14H20.1671ZM15.0871 14H14.0871V15H15.0871V14ZM15.0871 7V6H14.0871V7H15.0871ZM20.0271 7H21.0271V6H20.0271V7ZM20.0271 7.87V8.87H21.0271V7.87H20.0271ZM16.0871 7.87V6.87H15.0871V7.87H16.0871ZM15.9971 10.02V11.02H19.5971V10.02V9.02H15.9971V10.02ZM19.5971 10.02H18.5971V10.87H19.5971H20.5971V10.02H19.5971ZM19.5971 10.87V9.87H15.9971V10.87V11.87H19.5971V10.87ZM15.9971 10.87H16.9971V10.02H15.9971H14.9971V10.87H15.9971ZM16.0871 13.13V14.13H20.1671V13.13V12.13H16.0871V13.13ZM20.1671 13.13H19.1671V14H20.1671H21.1671V13.13H20.1671ZM20.1671 14V13H15.0871V14V15H20.1671V14ZM15.0871 14H16.0871V7H15.0871H14.0871V14H15.0871ZM15.0871 7V8H20.0271V7V6H15.0871V7ZM20.0271 7H19.0271V7.87H20.0271H21.0271V7H20.0271ZM20.0271 7.87V6.87H16.0871V7.87V8.87H20.0271V7.87ZM16.0871 7.87H15.0871V13.13H16.0871H17.0871V7.87H16.0871ZM21.6363 14H20.6363V15H21.6363V14ZM21.6363 7V6H20.6363V7H21.6363ZM22.4563 7L23.3162 6.48957L23.0257 6H22.4563V7ZM25.5963 12.29V13.29H27.3528L26.4562 11.7796L25.5963 12.29ZM25.1563 12.29L24.2936 11.7844L23.4113 13.29H25.1563V12.29ZM28.2563 7V6H27.6833L27.3936 6.49441L28.2563 7ZM29.0763 7L30.0763 6.99857L30.0749 6H29.0763V7ZM29.0863 14V15H30.0878L30.0863 13.9986L29.0863 14ZM28.1263 14L27.1263 14.0018L27.1281 15H28.1263V14ZM28.1163 8.51V7.51H27.1145L27.1163 8.51182L28.1163 8.51ZM28.3463 8.51L29.2058 9.02122L30.1047 7.51H28.3463V8.51ZM25.5863 13.15V14.15H26.155L26.4458 13.6612L25.5863 13.15ZM25.1263 13.15L24.2685 13.664L24.5597 14.15H25.1263V13.15ZM22.3463 8.51V7.51H20.5814L21.4885 9.02395L22.3463 8.51ZM22.5963 8.51H23.5963V7.51H22.5963V8.51ZM22.5963 14V15H23.5963V14H22.5963ZM21.6363 14H22.6363V7H21.6363H20.6363V14H21.6363ZM21.6363 7V8H22.4563V7V6H21.6363V7ZM22.4563 7L21.5964 7.51043L24.7364 12.8004L25.5963 12.29L26.4562 11.7796L23.3162 6.48957L22.4563 7ZM25.5963 12.29V11.29H25.1563V12.29V13.29H25.5963V12.29ZM25.1563 12.29L26.0191 12.7956L29.1191 7.50559L28.2563 7L27.3936 6.49441L24.2936 11.7844L25.1563 12.29ZM28.2563 7V8H29.0763V7V6H28.2563V7ZM29.0763 7L28.0763 7.00143L28.0863 14.0014L29.0863 14L30.0863 13.9986L30.0763 6.99857L29.0763 7ZM29.0863 14V13H28.1263V14V15H29.0863V14ZM28.1263 14L29.1263 13.9982L29.1163 8.50818L28.1163 8.51L27.1163 8.51182L27.1263 14.0018L28.1263 14ZM28.1163 8.51V9.51H28.3463V8.51V7.51H28.1163V8.51ZM28.3463 8.51L27.4869 7.99878L24.7269 12.6388L25.5863 13.15L26.4458 13.6612L29.2058 9.02122L28.3463 8.51ZM25.5863 13.15V12.15H25.1263V13.15V14.15H25.5863V13.15ZM25.1263 13.15L25.9841 12.636L23.2041 7.99605L22.3463 8.51L21.4885 9.02395L24.2685 13.664L25.1263 13.15ZM22.3463 8.51V9.51H22.5963V8.51V7.51H22.3463V8.51ZM22.5963 8.51H21.5963V14H22.5963H23.5963V8.51H22.5963ZM22.5963 14V13H21.6363V14V15H22.5963V14ZM34.9627 14H33.9627V15H34.9627V14ZM34.9627 7.87H35.9627V6.87H34.9627V7.87ZM32.5627 7.87H31.5627V8.87H32.5627V7.87ZM32.5627 7V6H31.5627V7H32.5627ZM38.3527 7H39.3527V6H38.3527V7ZM38.3527 7.87V8.87H39.3527V7.87H38.3527ZM35.9527 7.87V6.87H34.9527V7.87H35.9527ZM35.9527 14V15H36.9527V14H35.9527ZM34.9627 14H35.9627V7.87H34.9627H33.9627V14H34.9627ZM34.9627 7.87V6.87H32.5627V7.87V8.87H34.9627V7.87ZM32.5627 7.87H33.5627V7H32.5627H31.5627V7.87H32.5627ZM32.5627 7V8H38.3527V7V6H32.5627V7ZM38.3527 7H37.3527V7.87H38.3527H39.3527V7H38.3527ZM38.3527 7.87V6.87H35.9527V7.87V8.87H38.3527V7.87ZM35.9527 7.87H34.9527V14H35.9527H36.9527V7.87H35.9527ZM35.9527 14V13H34.9627V14V15H35.9527V14ZM44.3118 7V6H43.3118V7H44.3118ZM45.3118 7H46.3118V6H45.3118V7ZM45.3118 14V15H46.3118V14H45.3118ZM44.3118 14H43.3118V15H44.3118V14ZM40.2918 14V15H41.2918V14H40.2918ZM39.2918 14H38.2918V15H39.2918V14ZM39.2918 7V6H38.2918V7H39.2918ZM40.2918 7H41.2918V6H40.2918V7ZM44.4018 10.88V11.88H45.4018V10.88H44.4018ZM40.1918 10.88H39.1918V11.88H40.1918V10.88ZM40.1918 10.01V9.01H39.1918V10.01H40.1918ZM44.4018 10.01H45.4018V9.01H44.4018V10.01ZM44.3118 7V8H45.3118V7V6H44.3118V7ZM45.3118 7H44.3118V14H45.3118H46.3118V7H45.3118ZM45.3118 14V13H44.3118V14V15H45.3118V14ZM44.3118 14H45.3118V7H44.3118H43.3118V14H44.3118ZM40.2918 14V13H39.2918V14V15H40.2918V14ZM39.2918 14H40.2918V7H39.2918H38.2918V14H39.2918ZM39.2918 7V8H40.2918V7V6H39.2918V7ZM40.2918 7H39.2918V14H40.2918H41.2918V7H40.2918ZM44.4018 10.88V9.88H40.1918V10.88V11.88H44.4018V10.88ZM40.1918 10.88H41.1918V10.01H40.1918H39.1918V10.88H40.1918ZM40.1918 10.01V11.01H44.4018V10.01V9.01H40.1918V10.01ZM44.4018 10.01H43.4018V10.88H44.4018H45.4018V10.01H44.4018ZM48.167 10.02V9.02H47.167V10.02H48.167ZM51.767 10.02H52.767V9.02H51.767V10.02ZM51.767 10.87V11.87H52.767V10.87H51.767ZM48.167 10.87H47.167V11.87H48.167V10.87ZM48.257 13.13H47.257V14.13H48.257V13.13ZM52.337 13.13H53.337V12.13H52.337V13.13ZM52.337 14V15H53.337V14H52.337ZM47.257 14H46.257V15H47.257V14ZM47.257 7V6H46.257V7H47.257ZM52.197 7H53.197V6H52.197V7ZM52.197 7.87V8.87H53.197V7.87H52.197ZM48.257 7.87V6.87H47.257V7.87H48.257ZM47.947 6.43L47.248 5.71487L45.4933 7.43H47.947V6.43ZM49.277 5.13V4.13H48.8695L48.578 4.41487L49.277 5.13ZM50.197 5.13L50.896 4.41487L50.6046 4.13H50.197V5.13ZM51.527 6.43V7.43H53.9807L52.226 5.71487L51.527 6.43ZM50.657 6.43L50.0168 7.19822L50.295 7.43H50.657V6.43ZM49.337 5.33V4.33H46.575L48.6968 6.09822L49.337 5.33ZM50.137 5.33L50.7772 6.09822L52.8991 4.33H50.137V5.33ZM48.817 6.43V7.43H49.1791L49.4572 7.19822L48.817 6.43ZM48.167 10.02V11.02H51.767V10.02V9.02H48.167V10.02ZM51.767 10.02H50.767V10.87H51.767H52.767V10.02H51.767ZM51.767 10.87V9.87H48.167V10.87V11.87H51.767V10.87ZM48.167 10.87H49.167V10.02H48.167H47.167V10.87H48.167ZM48.257 13.13V14.13H52.337V13.13V12.13H48.257V13.13ZM52.337 13.13H51.337V14H52.337H53.337V13.13H52.337ZM52.337 14V13H47.257V14V15H52.337V14ZM47.257 14H48.257V7H47.257H46.257V14H47.257ZM47.257 7V8H52.197V7V6H47.257V7ZM52.197 7H51.197V7.87H52.197H53.197V7H52.197ZM52.197 7.87V6.87H48.257V7.87V8.87H52.197V7.87ZM48.257 7.87H47.257V13.13H48.257H49.257V7.87H48.257ZM47.947 6.43L48.646 7.14513L49.976 5.84513L49.277 5.13L48.578 4.41487L47.248 5.71487L47.947 6.43ZM49.277 5.13V6.13H50.197V5.13V4.13H49.277V5.13ZM50.197 5.13L49.498 5.84513L50.828 7.14513L51.527 6.43L52.226 5.71487L50.896 4.41487L50.197 5.13ZM51.527 6.43V5.43H50.657V6.43V7.43H51.527V6.43ZM50.657 6.43L51.2972 5.66178L49.9772 4.56178L49.337 5.33L48.6968 6.09822L50.0168 7.19822L50.657 6.43ZM49.337 5.33V6.33H50.137V5.33V4.33H49.337V5.33ZM50.137 5.33L49.4968 4.56178L48.1768 5.66178L48.817 6.43L49.4572 7.19822L50.7772 6.09822L50.137 5.33ZM48.817 6.43V5.43H47.947V6.43V7.43H48.817V6.43ZM53.8062 14H52.8062V15H53.8062V14ZM53.8062 7V6H52.8062V7H53.8062ZM54.6262 7L55.4862 6.48957L55.1956 6H54.6262V7ZM57.7663 12.29V13.29H59.5227L58.6262 11.7796L57.7663 12.29ZM57.3262 12.29L56.4635 11.7844L55.5812 13.29H57.3262V12.29ZM60.4263 7V6H59.8532L59.5635 6.49441L60.4263 7ZM61.2463 7L62.2462 6.99857L62.2448 6H61.2463V7ZM61.2562 14V15H62.2577L62.2562 13.9986L61.2562 14ZM60.2962 14L59.2962 14.0018L59.2981 15H60.2962V14ZM60.2862 8.51V7.51H59.2844L59.2863 8.51182L60.2862 8.51ZM60.5163 8.51L61.3757 9.02122L62.2746 7.51H60.5163V8.51ZM57.7562 13.15V14.15H58.325L58.6157 13.6612L57.7562 13.15ZM57.2962 13.15L56.4384 13.664L56.7296 14.15H57.2962V13.15ZM54.5162 8.51V7.51H52.7514L53.6584 9.02395L54.5162 8.51ZM54.7662 8.51H55.7662V7.51H54.7662V8.51ZM54.7662 14V15H55.7662V14H54.7662ZM53.8062 14H54.8062V7H53.8062H52.8062V14H53.8062ZM53.8062 7V8H54.6262V7V6H53.8062V7ZM54.6262 7L53.7663 7.51043L56.9063 12.8004L57.7663 12.29L58.6262 11.7796L55.4862 6.48957L54.6262 7ZM57.7663 12.29V11.29H57.3262V12.29V13.29H57.7663V12.29ZM57.3262 12.29L58.189 12.7956L61.289 7.50559L60.4263 7L59.5635 6.49441L56.4635 11.7844L57.3262 12.29ZM60.4263 7V8H61.2463V7V6H60.4263V7ZM61.2463 7L60.2463 7.00143L60.2562 14.0014L61.2562 14L62.2562 13.9986L62.2462 6.99857L61.2463 7ZM61.2562 14V13H60.2962V14V15H61.2562V14ZM60.2962 14L61.2962 13.9982L61.2862 8.50818L60.2862 8.51L59.2863 8.51182L59.2962 14.0018L60.2962 14ZM60.2862 8.51V9.51H60.5163V8.51V7.51H60.2862V8.51ZM60.5163 8.51L59.6568 7.99878L56.8968 12.6388L57.7562 13.15L58.6157 13.6612L61.3757 9.02122L60.5163 8.51ZM57.7562 13.15V12.15H57.2962V13.15V14.15H57.7562V13.15ZM57.2962 13.15L58.1541 12.636L55.3741 7.99605L54.5162 8.51L53.6584 9.02395L56.4384 13.664L57.2962 13.15ZM54.5162 8.51V9.51H54.7662V8.51V7.51H54.5162V8.51ZM54.7662 8.51H53.7662V14H54.7662H55.7662V8.51H54.7662ZM54.7662 14V13H53.8062V14V15H54.7662V14Z" fill="#F0EEE1" mask="url(#path-2-outside-1_387_1110)"/>
</svg>
