<svg width="174" height="52" viewBox="0 0 174 52" fill="none" xmlns="http://www.w3.org/2000/svg">
<rect x="0.5" y="0.5" width="173" height="51" rx="4.5" fill="white" stroke="#F0EEE1"/>
<mask id="path-2-outside-1_324_282" maskUnits="userSpaceOnUse" x="41" y="17" width="90" height="17" fill="black">
<rect fill="white" x="41" y="17" width="90" height="17"/>
<path d="M43.5168 33L48.1728 26.648V27.88L43.7728 21.8H45.5968L49.0848 26.584L48.3648 26.6L51.8368 21.8H53.5808L49.2128 27.784V26.632L53.8688 33H52.0288L48.3168 27.896H49.0208L45.3568 33H43.5168ZM56.5954 26.632H62.3554V27.992H56.5954V26.632ZM56.7394 31.608H63.2674V33H55.1394V21.8H63.0434V23.192H56.7394V31.608ZM65.6181 33V21.8H66.9301L71.9541 30.264H71.2501L76.2101 21.8H77.5221L77.5381 33H76.0021L75.9861 24.216H76.3541L71.9381 31.64H71.2021L66.7541 24.216H67.1541V33H65.6181ZM86.9403 33V23.192H83.1003V21.8H92.3643V23.192H88.5243V33H86.9403ZM101.899 21.8H103.499V33H101.899V21.8ZM95.4669 33H93.8669V21.8H95.4669V33ZM102.043 28.008H95.3069V26.616H102.043V28.008ZM108.067 26.632H113.827V27.992H108.067V26.632ZM108.211 31.608H114.739V33H106.611V21.8H114.515V23.192H108.211V31.608ZM107.715 20.888L109.843 18.808H111.315L113.443 20.888H112.051L109.939 19.128H111.219L109.107 20.888H107.715ZM117.09 33V21.8H118.402L123.426 30.264H122.722L127.682 21.8H128.994L129.01 33H127.474L127.458 24.216H127.826L123.41 31.64H122.674L118.226 24.216H118.626V33H117.09Z"/>
</mask>
<path d="M43.5168 33L48.1728 26.648V27.88L43.7728 21.8H45.5968L49.0848 26.584L48.3648 26.6L51.8368 21.8H53.5808L49.2128 27.784V26.632L53.8688 33H52.0288L48.3168 27.896H49.0208L45.3568 33H43.5168ZM56.5954 26.632H62.3554V27.992H56.5954V26.632ZM56.7394 31.608H63.2674V33H55.1394V21.8H63.0434V23.192H56.7394V31.608ZM65.6181 33V21.8H66.9301L71.9541 30.264H71.2501L76.2101 21.8H77.5221L77.5381 33H76.0021L75.9861 24.216H76.3541L71.9381 31.64H71.2021L66.7541 24.216H67.1541V33H65.6181ZM86.9403 33V23.192H83.1003V21.8H92.3643V23.192H88.5243V33H86.9403ZM101.899 21.8H103.499V33H101.899V21.8ZM95.4669 33H93.8669V21.8H95.4669V33ZM102.043 28.008H95.3069V26.616H102.043V28.008ZM108.067 26.632H113.827V27.992H108.067V26.632ZM108.211 31.608H114.739V33H106.611V21.8H114.515V23.192H108.211V31.608ZM107.715 20.888L109.843 18.808H111.315L113.443 20.888H112.051L109.939 19.128H111.219L109.107 20.888H107.715ZM117.09 33V21.8H118.402L123.426 30.264H122.722L127.682 21.8H128.994L129.01 33H127.474L127.458 24.216H127.826L123.41 31.64H122.674L118.226 24.216H118.626V33H117.09Z" fill="black"/>
<path d="M43.5168 33L42.7102 32.4088L41.5439 34H43.5168V33ZM48.1728 26.648H49.1728V23.5922L47.3662 26.0568L48.1728 26.648ZM48.1728 27.88L47.3626 28.4663L49.1728 30.9675V27.88H48.1728ZM43.7728 21.8V20.8H41.8147L42.9626 22.3863L43.7728 21.8ZM45.5968 21.8L46.4048 21.2109L46.1052 20.8H45.5968V21.8ZM49.0848 26.584L49.107 27.5838L51.0202 27.5412L49.8928 25.9949L49.0848 26.584ZM48.3648 26.6L47.5545 26.0139L46.3751 27.6445L48.387 27.5998L48.3648 26.6ZM51.8368 21.8V20.8H51.3259L51.0265 21.2139L51.8368 21.8ZM53.5808 21.8L54.3885 22.3896L55.5488 20.8H53.5808V21.8ZM49.2128 27.784H48.2128V30.8501L50.0205 28.3736L49.2128 27.784ZM49.2128 26.632L50.02 26.0418L48.2128 23.57V26.632H49.2128ZM53.8688 33V34H55.8387L54.676 32.4098L53.8688 33ZM52.0288 33L51.22 33.5882L51.5195 34H52.0288V33ZM48.3168 27.896V26.896H46.353L47.508 28.4842L48.3168 27.896ZM49.0208 27.896L49.8331 28.4792L50.9696 26.896H49.0208V27.896ZM45.3568 33V34H45.8699L46.1691 33.5832L45.3568 33ZM43.5168 33L44.3233 33.5912L48.9793 27.2392L48.1728 26.648L47.3662 26.0568L42.7102 32.4088L43.5168 33ZM48.1728 26.648H47.1728V27.88H48.1728H49.1728V26.648H48.1728ZM48.1728 27.88L48.9829 27.2937L44.5829 21.2137L43.7728 21.8L42.9626 22.3863L47.3626 28.4663L48.1728 27.88ZM43.7728 21.8V22.8H45.5968V21.8V20.8H43.7728V21.8ZM45.5968 21.8L44.7887 22.3891L48.2767 27.1731L49.0848 26.584L49.8928 25.9949L46.4048 21.2109L45.5968 21.8ZM49.0848 26.584L49.0625 25.5842L48.3425 25.6002L48.3648 26.6L48.387 27.5998L49.107 27.5838L49.0848 26.584ZM48.3648 26.6L49.175 27.1861L52.647 22.3861L51.8368 21.8L51.0265 21.2139L47.5545 26.0139L48.3648 26.6ZM51.8368 21.8V22.8H53.5808V21.8V20.8H51.8368V21.8ZM53.5808 21.8L52.773 21.2104L48.405 27.1944L49.2128 27.784L50.0205 28.3736L54.3885 22.3896L53.5808 21.8ZM49.2128 27.784H50.2128V26.632H49.2128H48.2128V27.784H49.2128ZM49.2128 26.632L48.4055 27.2222L53.0615 33.5902L53.8688 33L54.676 32.4098L50.02 26.0418L49.2128 26.632ZM53.8688 33V32H52.0288V33V34H53.8688V33ZM52.0288 33L52.8375 32.4118L49.1255 27.3078L48.3168 27.896L47.508 28.4842L51.22 33.5882L52.0288 33ZM48.3168 27.896V28.896H49.0208V27.896V26.896H48.3168V27.896ZM49.0208 27.896L48.2084 27.3128L44.5444 32.4168L45.3568 33L46.1691 33.5832L49.8331 28.4792L49.0208 27.896ZM45.3568 33V32H43.5168V33V34H45.3568V33ZM56.5954 26.632V25.632H55.5954V26.632H56.5954ZM62.3554 26.632H63.3554V25.632H62.3554V26.632ZM62.3554 27.992V28.992H63.3554V27.992H62.3554ZM56.5954 27.992H55.5954V28.992H56.5954V27.992ZM56.7394 31.608H55.7394V32.608H56.7394V31.608ZM63.2674 31.608H64.2674V30.608H63.2674V31.608ZM63.2674 33V34H64.2674V33H63.2674ZM55.1394 33H54.1394V34H55.1394V33ZM55.1394 21.8V20.8H54.1394V21.8H55.1394ZM63.0434 21.8H64.0434V20.8H63.0434V21.8ZM63.0434 23.192V24.192H64.0434V23.192H63.0434ZM56.7394 23.192V22.192H55.7394V23.192H56.7394ZM56.5954 26.632V27.632H62.3554V26.632V25.632H56.5954V26.632ZM62.3554 26.632H61.3554V27.992H62.3554H63.3554V26.632H62.3554ZM62.3554 27.992V26.992H56.5954V27.992V28.992H62.3554V27.992ZM56.5954 27.992H57.5954V26.632H56.5954H55.5954V27.992H56.5954ZM56.7394 31.608V32.608H63.2674V31.608V30.608H56.7394V31.608ZM63.2674 31.608H62.2674V33H63.2674H64.2674V31.608H63.2674ZM63.2674 33V32H55.1394V33V34H63.2674V33ZM55.1394 33H56.1394V21.8H55.1394H54.1394V33H55.1394ZM55.1394 21.8V22.8H63.0434V21.8V20.8H55.1394V21.8ZM63.0434 21.8H62.0434V23.192H63.0434H64.0434V21.8H63.0434ZM63.0434 23.192V22.192H56.7394V23.192V24.192H63.0434V23.192ZM56.7394 23.192H55.7394V31.608H56.7394H57.7394V23.192H56.7394ZM65.6181 33H64.6181V34H65.6181V33ZM65.6181 21.8V20.8H64.6181V21.8H65.6181ZM66.9301 21.8L67.79 21.2896L67.4994 20.8H66.9301V21.8ZM71.9541 30.264V31.264H73.7106L72.814 29.7536L71.9541 30.264ZM71.2501 30.264L70.3874 29.7584L69.5051 31.264H71.2501V30.264ZM76.2101 21.8V20.8H75.6371L75.3474 21.2944L76.2101 21.8ZM77.5221 21.8L78.5221 21.7986L78.5207 20.8H77.5221V21.8ZM77.5381 33V34H78.5396L78.5381 32.9986L77.5381 33ZM76.0021 33L75.0021 33.0018L75.0039 34H76.0021V33ZM75.9861 24.216V23.216H74.9843L74.9861 24.2178L75.9861 24.216ZM76.3541 24.216L77.2136 24.7272L78.1125 23.216H76.3541V24.216ZM71.9381 31.64V32.64H72.5068L72.7976 32.1512L71.9381 31.64ZM71.2021 31.64L70.3443 32.154L70.6355 32.64H71.2021V31.64ZM66.7541 24.216V23.216H64.9892L65.8963 24.73L66.7541 24.216ZM67.1541 24.216H68.1541V23.216H67.1541V24.216ZM67.1541 33V34H68.1541V33H67.1541ZM65.6181 33H66.6181V21.8H65.6181H64.6181V33H65.6181ZM65.6181 21.8V22.8H66.9301V21.8V20.8H65.6181V21.8ZM66.9301 21.8L66.0702 22.3104L71.0942 30.7744L71.9541 30.264L72.814 29.7536L67.79 21.2896L66.9301 21.8ZM71.9541 30.264V29.264H71.2501V30.264V31.264H71.9541V30.264ZM71.2501 30.264L72.1129 30.7696L77.0729 22.3056L76.2101 21.8L75.3474 21.2944L70.3874 29.7584L71.2501 30.264ZM76.2101 21.8V22.8H77.5221V21.8V20.8H76.2101V21.8ZM77.5221 21.8L76.5221 21.8014L76.5381 33.0014L77.5381 33L78.5381 32.9986L78.5221 21.7986L77.5221 21.8ZM77.5381 33V32H76.0021V33V34H77.5381V33ZM76.0021 33L77.0021 32.9982L76.9861 24.2142L75.9861 24.216L74.9861 24.2178L75.0021 33.0018L76.0021 33ZM75.9861 24.216V25.216H76.3541V24.216V23.216H75.9861V24.216ZM76.3541 24.216L75.4947 23.7048L71.0787 31.1288L71.9381 31.64L72.7976 32.1512L77.2136 24.7272L76.3541 24.216ZM71.9381 31.64V30.64H71.2021V31.64V32.64H71.9381V31.64ZM71.2021 31.64L72.0599 31.126L67.6119 23.702L66.7541 24.216L65.8963 24.73L70.3443 32.154L71.2021 31.64ZM66.7541 24.216V25.216H67.1541V24.216V23.216H66.7541V24.216ZM67.1541 24.216H66.1541V33H67.1541H68.1541V24.216H67.1541ZM67.1541 33V32H65.6181V33V34H67.1541V33ZM86.9403 33H85.9403V34H86.9403V33ZM86.9403 23.192H87.9403V22.192H86.9403V23.192ZM83.1003 23.192H82.1003V24.192H83.1003V23.192ZM83.1003 21.8V20.8H82.1003V21.8H83.1003ZM92.3643 21.8H93.3643V20.8H92.3643V21.8ZM92.3643 23.192V24.192H93.3643V23.192H92.3643ZM88.5243 23.192V22.192H87.5243V23.192H88.5243ZM88.5243 33V34H89.5243V33H88.5243ZM86.9403 33H87.9403V23.192H86.9403H85.9403V33H86.9403ZM86.9403 23.192V22.192H83.1003V23.192V24.192H86.9403V23.192ZM83.1003 23.192H84.1003V21.8H83.1003H82.1003V23.192H83.1003ZM83.1003 21.8V22.8H92.3643V21.8V20.8H83.1003V21.8ZM92.3643 21.8H91.3643V23.192H92.3643H93.3643V21.8H92.3643ZM92.3643 23.192V22.192H88.5243V23.192V24.192H92.3643V23.192ZM88.5243 23.192H87.5243V33H88.5243H89.5243V23.192H88.5243ZM88.5243 33V32H86.9403V33V34H88.5243V33ZM101.899 21.8V20.8H100.899V21.8H101.899ZM103.499 21.8H104.499V20.8H103.499V21.8ZM103.499 33V34H104.499V33H103.499ZM101.899 33H100.899V34H101.899V33ZM95.4669 33V34H96.4669V33H95.4669ZM93.8669 33H92.8669V34H93.8669V33ZM93.8669 21.8V20.8H92.8669V21.8H93.8669ZM95.4669 21.8H96.4669V20.8H95.4669V21.8ZM102.043 28.008V29.008H103.043V28.008H102.043ZM95.3069 28.008H94.3069V29.008H95.3069V28.008ZM95.3069 26.616V25.616H94.3069V26.616H95.3069ZM102.043 26.616H103.043V25.616H102.043V26.616ZM101.899 21.8V22.8H103.499V21.8V20.8H101.899V21.8ZM103.499 21.8H102.499V33H103.499H104.499V21.8H103.499ZM103.499 33V32H101.899V33V34H103.499V33ZM101.899 33H102.899V21.8H101.899H100.899V33H101.899ZM95.4669 33V32H93.8669V33V34H95.4669V33ZM93.8669 33H94.8669V21.8H93.8669H92.8669V33H93.8669ZM93.8669 21.8V22.8H95.4669V21.8V20.8H93.8669V21.8ZM95.4669 21.8H94.4669V33H95.4669H96.4669V21.8H95.4669ZM102.043 28.008V27.008H95.3069V28.008V29.008H102.043V28.008ZM95.3069 28.008H96.3069V26.616H95.3069H94.3069V28.008H95.3069ZM95.3069 26.616V27.616H102.043V26.616V25.616H95.3069V26.616ZM102.043 26.616H101.043V28.008H102.043H103.043V26.616H102.043ZM108.067 26.632V25.632H107.067V26.632H108.067ZM113.827 26.632H114.827V25.632H113.827V26.632ZM113.827 27.992V28.992H114.827V27.992H113.827ZM108.067 27.992H107.067V28.992H108.067V27.992ZM108.211 31.608H107.211V32.608H108.211V31.608ZM114.739 31.608H115.739V30.608H114.739V31.608ZM114.739 33V34H115.739V33H114.739ZM106.611 33H105.611V34H106.611V33ZM106.611 21.8V20.8H105.611V21.8H106.611ZM114.515 21.8H115.515V20.8H114.515V21.8ZM114.515 23.192V24.192H115.515V23.192H114.515ZM108.211 23.192V22.192H107.211V23.192H108.211ZM107.715 20.888L107.016 20.1729L105.262 21.888H107.715V20.888ZM109.843 18.808V17.808H109.436L109.144 18.0929L109.843 18.808ZM111.315 18.808L112.014 18.0929L111.723 17.808H111.315V18.808ZM113.443 20.888V21.888H115.897L114.142 20.1729L113.443 20.888ZM112.051 20.888L111.411 21.6562L111.689 21.888H112.051V20.888ZM109.939 19.128V18.128H107.177L109.299 19.8962L109.939 19.128ZM111.219 19.128L111.859 19.8962L113.981 18.128H111.219V19.128ZM109.107 20.888V21.888H109.469L109.747 21.6562L109.107 20.888ZM108.067 26.632V27.632H113.827V26.632V25.632H108.067V26.632ZM113.827 26.632H112.827V27.992H113.827H114.827V26.632H113.827ZM113.827 27.992V26.992H108.067V27.992V28.992H113.827V27.992ZM108.067 27.992H109.067V26.632H108.067H107.067V27.992H108.067ZM108.211 31.608V32.608H114.739V31.608V30.608H108.211V31.608ZM114.739 31.608H113.739V33H114.739H115.739V31.608H114.739ZM114.739 33V32H106.611V33V34H114.739V33ZM106.611 33H107.611V21.8H106.611H105.611V33H106.611ZM106.611 21.8V22.8H114.515V21.8V20.8H106.611V21.8ZM114.515 21.8H113.515V23.192H114.515H115.515V21.8H114.515ZM114.515 23.192V22.192H108.211V23.192V24.192H114.515V23.192ZM108.211 23.192H107.211V31.608H108.211H109.211V23.192H108.211ZM107.715 20.888L108.414 21.6031L110.542 19.5231L109.843 18.808L109.144 18.0929L107.016 20.1729L107.715 20.888ZM109.843 18.808V19.808H111.315V18.808V17.808H109.843V18.808ZM111.315 18.808L110.616 19.5231L112.744 21.6031L113.443 20.888L114.142 20.1729L112.014 18.0929L111.315 18.808ZM113.443 20.888V19.888H112.051V20.888V21.888H113.443V20.888ZM112.051 20.888L112.691 20.1198L110.579 18.3598L109.939 19.128L109.299 19.8962L111.411 21.6562L112.051 20.888ZM109.939 19.128V20.128H111.219V19.128V18.128H109.939V19.128ZM111.219 19.128L110.579 18.3598L108.467 20.1198L109.107 20.888L109.747 21.6562L111.859 19.8962L111.219 19.128ZM109.107 20.888V19.888H107.715V20.888V21.888H109.107V20.888ZM117.09 33H116.09V34H117.09V33ZM117.09 21.8V20.8H116.09V21.8H117.09ZM118.402 21.8L119.262 21.2896L118.971 20.8H118.402V21.8ZM123.426 30.264V31.264H125.182L124.286 29.7536L123.426 30.264ZM122.722 30.264L121.859 29.7584L120.977 31.264H122.722V30.264ZM127.682 21.8V20.8H127.109L126.819 21.2944L127.682 21.8ZM128.994 21.8L129.994 21.7986L129.993 20.8H128.994V21.8ZM129.01 33V34H130.011L130.01 32.9986L129.01 33ZM127.474 33L126.474 33.0018L126.476 34H127.474V33ZM127.458 24.216V23.216H126.456L126.458 24.2178L127.458 24.216ZM127.826 24.216L128.685 24.7272L129.584 23.216H127.826V24.216ZM123.41 31.64V32.64H123.979L124.269 32.1512L123.41 31.64ZM122.674 31.64L121.816 32.154L122.107 32.64H122.674V31.64ZM118.226 24.216V23.216H116.461L117.368 24.73L118.226 24.216ZM118.626 24.216H119.626V23.216H118.626V24.216ZM118.626 33V34H119.626V33H118.626ZM117.09 33H118.09V21.8H117.09H116.09V33H117.09ZM117.09 21.8V22.8H118.402V21.8V20.8H117.09V21.8ZM118.402 21.8L117.542 22.3104L122.566 30.7744L123.426 30.264L124.286 29.7536L119.262 21.2896L118.402 21.8ZM123.426 30.264V29.264H122.722V30.264V31.264H123.426V30.264ZM122.722 30.264L123.585 30.7696L128.545 22.3056L127.682 21.8L126.819 21.2944L121.859 29.7584L122.722 30.264ZM127.682 21.8V22.8H128.994V21.8V20.8H127.682V21.8ZM128.994 21.8L127.994 21.8014L128.01 33.0014L129.01 33L130.01 32.9986L129.994 21.7986L128.994 21.8ZM129.01 33V32H127.474V33V34H129.01V33ZM127.474 33L128.474 32.9982L128.458 24.2142L127.458 24.216L126.458 24.2178L126.474 33.0018L127.474 33ZM127.458 24.216V25.216H127.826V24.216V23.216H127.458V24.216ZM127.826 24.216L126.967 23.7048L122.551 31.1288L123.41 31.64L124.269 32.1512L128.685 24.7272L127.826 24.216ZM123.41 31.64V30.64H122.674V31.64V32.64H123.41V31.64ZM122.674 31.64L123.532 31.126L119.084 23.702L118.226 24.216L117.368 24.73L121.816 32.154L122.674 31.64ZM118.226 24.216V25.216H118.626V24.216V23.216H118.226V24.216ZM118.626 24.216H117.626V33H118.626H119.626V24.216H118.626ZM118.626 33V32H117.09V33V34H118.626V33Z" fill="#F0EEE1" mask="url(#path-2-outside-1_324_282)"/>
</svg>
