<svg width="13" height="14" viewBox="0 0 13 14" fill="none" xmlns="http://www.w3.org/2000/svg">
<path d="M10.6552 3.27214C10.5681 3.226 10.4822 3.17473 10.4001 3.11834C10.1599 2.95429 9.93959 2.76205 9.74419 2.54418C9.25508 1.96745 9.07212 1.38175 9.00492 0.97291H9.00741C8.9514 0.633281 8.9738 0.412842 8.97754 0.412842H6.74728V9.29062C6.74728 9.40982 6.74728 9.52772 6.7423 9.64435C6.7423 9.65845 6.74106 9.67255 6.73981 9.68793C6.73981 9.69433 6.73981 9.70074 6.73857 9.70715C6.73857 9.70843 6.73857 9.711 6.73857 9.71228C6.69127 10.3595 6.33408 10.9388 5.78648 11.2592C5.5052 11.4245 5.18784 11.5104 4.86425 11.5104C3.82504 11.5104 2.98372 10.6376 2.98372 9.56105C2.98372 8.4832 3.82504 7.6117 4.86425 7.6117C5.06089 7.6117 5.25629 7.64374 5.44298 7.70654L5.44546 5.36887C4.29798 5.21635 3.14053 5.56495 2.2544 6.33008C1.86983 6.67356 1.54749 7.08367 1.29982 7.5425C1.20523 7.70911 0.850534 8.38067 0.808218 9.47133C0.780838 10.0904 0.9613 10.7312 1.04717 10.9952V11.0003C1.10069 11.1567 1.31102 11.6885 1.65203 12.1371C1.92708 12.4972 2.25316 12.8138 2.61781 13.0752V13.0701L2.62279 13.0752C3.70183 13.8301 4.8991 13.7814 4.8991 13.7814C5.1057 13.7725 5.80017 13.7814 6.58797 13.3969C7.46166 12.9702 7.95948 12.3358 7.95948 12.3358C8.27685 11.9564 8.53074 11.5232 8.70747 11.0567C8.90909 10.5107 8.97629 9.85582 8.97629 9.59309V4.88313C9.00367 4.89979 9.36335 5.14458 9.36335 5.14458C9.36335 5.14458 9.88234 5.48678 10.6925 5.70978C11.2738 5.8687 12.0566 5.90202 12.0566 5.90202V3.6233C11.7828 3.65406 11.2252 3.56435 10.6552 3.27214Z" fill="white"/>
</svg>
